<?xml version="1.0" encoding="UTF-8" standalone="no"?>
<!-- Created with Inkscape (http://www.inkscape.org/) -->

<svg
   xmlns:dc="http://purl.org/dc/elements/1.1/"
   xmlns:cc="http://creativecommons.org/ns#"
   xmlns:rdf="http://www.w3.org/1999/02/22-rdf-syntax-ns#"
   xmlns:svg="http://www.w3.org/2000/svg"
   xmlns="http://www.w3.org/2000/svg"
   xmlns:sodipodi="http://sodipodi.sourceforge.net/DTD/sodipodi-0.dtd"
   xmlns:inkscape="http://www.inkscape.org/namespaces/inkscape"
   width="115.83987mm"
   height="103.68421mm"
   viewBox="0 0 115.83987 103.68421"
   version="1.1"
   id="svg3505"
   inkscape:version="0.92.3 (2405546, 2018-03-11)"
   sodipodi:docname="baby_4.svg">
  <defs
     id="defs3499" />
  <sodipodi:namedview
     id="base"
     pagecolor="#ffffff"
     bordercolor="#666666"
     borderopacity="1.0"
     inkscape:pageopacity="0.0"
     inkscape:pageshadow="2"
     inkscape:zoom="0.35"
     inkscape:cx="310.91558"
     inkscape:cy="216.04906"
     inkscape:document-units="mm"
     inkscape:current-layer="layer1"
     showgrid="false"
     fit-margin-top="0"
     fit-margin-left="0"
     fit-margin-right="0"
     fit-margin-bottom="0"
     inkscape:window-width="1853"
     inkscape:window-height="1025"
     inkscape:window-x="67"
     inkscape:window-y="27"
     inkscape:window-maximized="1" />
  <metadata
     id="metadata3502">
    <rdf:RDF>
      <cc:Work
         rdf:about="">
        <dc:format>image/svg+xml</dc:format>
        <dc:type
           rdf:resource="http://purl.org/dc/dcmitype/StillImage" />
        <dc:title></dc:title>
      </cc:Work>
    </rdf:RDF>
  </metadata>
  <g
     inkscape:label="Capa 1"
     inkscape:groupmode="layer"
     id="layer1"
     transform="translate(-23.570254,-41.835913)">
    <g
       transform="matrix(0.35277777,0,0,-0.35277777,-80.228361,2037.0288)"
       id="g3857">
      <g
         transform="translate(578.7803,5498.333)"
         id="g170">
        <path
           inkscape:connector-curvature="0"
           id="path172"
           style="fill:#fcd7b9;fill-opacity:1;fill-rule:nonzero;stroke:none"
           d="m 0,0 c 0,-70.809 -57.606,-128.412 -128.418,-128.412 -70.813,0 -128.423,57.603 -128.423,128.412 0,22.217 5.67,43.132 15.635,61.374 0.431,-0.156 0.878,-0.272 1.357,-0.272 h 26.892 c -0.332,-0.598 -0.581,-1.253 -0.581,-1.986 V 40.883 c 0,-2.258 1.823,-4.082 4.084,-4.082 2.252,0 4.079,1.824 4.079,4.082 v 18.233 c 0,0.733 -0.248,1.388 -0.583,1.986 h 17.31 c -0.341,-0.598 -0.586,-1.253 -0.586,-1.986 V 40.883 c 0,-2.258 1.83,-4.082 4.085,-4.082 2.251,0 4.079,1.824 4.079,4.082 v 18.233 c 0,0.733 -0.243,1.388 -0.588,1.986 H -15.487 C -5.613,42.922 0,22.107 0,0" />
      </g>
      <g
         transform="translate(578.7803,5498.333)"
         id="g174">
        <path
           inkscape:connector-curvature="0"
           id="path176"
           style="fill:#00354b;fill-opacity:1;fill-rule:nonzero;stroke:none"
           d="m 0,0 c 0,-70.809 -57.606,-128.412 -128.418,-128.412 -70.813,0 -128.423,57.603 -128.423,128.412 0,22.217 5.67,43.132 15.635,61.374 0.431,-0.156 0.878,-0.272 1.357,-0.272 h 26.892 c -0.332,-0.598 -0.581,-1.253 -0.581,-1.986 V 40.883 c 0,-2.258 1.823,-4.082 4.084,-4.082 2.252,0 4.079,1.824 4.079,4.082 v 18.233 c 0,0.733 -0.248,1.388 -0.583,1.986 h 17.31 c -0.341,-0.598 -0.586,-1.253 -0.586,-1.986 V 40.883 c 0,-2.258 1.83,-4.082 4.085,-4.082 2.251,0 4.079,1.824 4.079,4.082 v 18.233 c 0,0.733 -0.243,1.388 -0.588,1.986 H -15.487 C -5.613,42.922 0,22.107 0,0 M 19.349,2.786 C 19.349,-4.42 14.32,-10.438 7.601,-12.04 7.949,-8.072 8.163,-4.061 8.163,0 8.163,6.024 7.727,11.941 6.97,17.761 14.01,16.403 19.349,10.218 19.349,2.786 m -295.732,0.011 c 0,7.485 5.44,13.705 12.571,14.988 -0.759,-5.829 -1.193,-11.752 -1.193,-17.785 0,-4.078 0.208,-8.102 0.564,-12.087 -6.823,1.529 -11.942,7.614 -11.942,14.884 m 147.965,125.633 c 45.312,0 85.192,-23.615 108.055,-59.164 h -216.118 c 22.867,35.549 62.747,59.164 108.063,59.164 m -11.1,9.152 c 0.184,6.524 5.213,11.586 11.605,11.586 6.505,0 11.607,-5.244 11.607,-11.941 v -1.199 c -3.995,0.351 -8.025,0.568 -12.112,0.568 -3.646,0 -7.247,-0.192 -10.823,-0.473 z M 39.736,69.266 h -50.504 c -20.513,34.712 -55.915,59.619 -97.376,65.815 v 2.146 c 0,11.273 -8.685,20.105 -19.769,20.105 -11.09,0 -19.774,-8.832 -19.774,-20.105 l 0.352,-1.972 c -57.768,-8.046 -104.071,-52.332 -115.134,-109.098 -12.293,-0.721 -22.079,-10.907 -22.079,-23.36 0,-12.128 9.26,-22.14 21.088,-23.33 9.932,-65.607 66.703,-116.043 135.042,-116.043 68.337,0 125.112,50.451 135.038,116.067 11.728,1.268 20.893,11.234 20.893,23.295 0,12.4 -9.689,22.548 -21.888,23.357 -2.398,12.325 -6.461,24.05 -11.944,34.959 h 46.055 c 2.25,0 4.081,1.824 4.081,4.082 0,2.255 -1.831,4.082 -4.081,4.082" />
      </g>
      <g
         transform="translate(387.564,5438.9092)"
         id="g178">
        <path
           inkscape:connector-curvature="0"
           id="path180"
           style="fill:#00354b;fill-opacity:1;fill-rule:nonzero;stroke:none"
           d="m 0,0 c -1.377,-1.796 -1.044,-4.353 0.745,-5.724 17.931,-13.807 39.391,-21.101 62.047,-21.101 23.187,0 45.024,7.588 63.152,21.939 1.765,1.406 2.063,3.971 0.661,5.741 -1.401,1.768 -3.967,2.065 -5.733,0.662 -16.669,-13.206 -36.749,-20.183 -58.08,-20.183 -20.838,0 -40.576,6.708 -57.067,19.407 C 3.94,2.123 1.378,1.787 0,0" />
      </g>
      <g
         transform="translate(410.9355,5492.1846)"
         id="g182">
        <path
           inkscape:connector-curvature="0"
           id="path184"
           style="fill:#00354b;fill-opacity:1;fill-rule:nonzero;stroke:none"
           d="M 0,0 C 6.996,0 12.663,5.667 12.663,12.66 12.663,19.653 6.996,25.345 0,25.345 -6.997,25.345 -12.689,19.653 -12.689,12.66 -12.689,5.667 -6.997,0 0,0" />
      </g>
      <g
         transform="translate(489.7793,5492.1758)"
         id="g186">
        <path
           inkscape:connector-curvature="0"
           id="path188"
           style="fill:#00354b;fill-opacity:1;fill-rule:nonzero;stroke:none"
           d="m 0,0 c 7.023,0 12.693,5.676 12.693,12.669 0,7 -5.67,12.693 -12.693,12.693 -7.006,0 -12.669,-5.693 -12.669,-12.693 C -12.669,5.676 -7.006,0 0,0" />
      </g>
      <g
         transform="translate(598.1289,5501.1191)"
         id="g190">
        <path
           inkscape:connector-curvature="0"
           id="path192"
           style="fill:#ffeac2;fill-opacity:1;fill-rule:nonzero;stroke:none"
           d="m 0,0 c 0,-7.206 -5.028,-13.224 -11.748,-14.826 0.349,3.968 0.562,7.979 0.562,12.04 0,6.024 -0.436,11.941 -1.193,17.761 C -5.339,13.617 0,7.432 0,0" />
      </g>
      <g
         transform="translate(302.3975,5501.1299)"
         id="g194">
        <path
           inkscape:connector-curvature="0"
           id="path196"
           style="fill:#ffeac2;fill-opacity:1;fill-rule:nonzero;stroke:none"
           d="M 0,0 C 0,7.485 5.439,13.705 12.571,14.988 11.812,9.159 11.377,3.236 11.377,-2.797 c 0,-4.078 0.209,-8.101 0.564,-12.087 C 5.119,-13.354 0,-7.27 0,0" />
      </g>
      <g
         transform="translate(450.3618,5626.7627)"
         id="g198">
        <path
           inkscape:connector-curvature="0"
           id="path200"
           style="fill:#f74252;fill-opacity:1;fill-rule:nonzero;stroke:none"
           d="M 0,0 C 45.313,0 85.193,-23.614 108.056,-59.164 H -108.063 C -85.196,-23.614 -45.316,0 0,0" />
      </g>
      <g
         transform="translate(439.2627,5635.915)"
         id="g202">
        <path
           inkscape:connector-curvature="0"
           id="path204"
           style="fill:#ff696f;fill-opacity:1;fill-rule:nonzero;stroke:none"
           d="m 0,0 c 0.184,6.524 5.213,11.586 11.604,11.586 6.506,0 11.607,-5.244 11.607,-11.941 v -1.199 c -3.994,0.351 -8.024,0.568 -12.112,0.568 -3.645,0 -7.246,-0.192 -10.822,-0.473 z" />
      </g>
    </g>
  </g>
</svg>
