<svg xmlns="http://www.w3.org/2000/svg" viewBox="0 0 64 64"><defs><style>.cls-1,.cls-7{fill:none;}.cls-1,.cls-4{stroke:#c1842b;}.cls-1,.cls-2,.cls-3,.cls-4,.cls-5,.cls-7{stroke-linecap:round;stroke-linejoin:round;stroke-width:2px;}.cls-2{fill:#f2ec25;stroke:#f2ec25;}.cls-3{fill:#8d6e63;stroke:#8d6e63;}.cls-4{fill:#c1842b;}.cls-5{fill:#5b3b63;stroke:#5b3b63;opacity:0.1;}.cls-6{fill:#4f4f4f;}.cls-7{stroke:#4f4f4f;}</style></defs><title>baby-cloth</title><g id="baby-cloth"><line class="cls-1" x1="46" y1="7" x2="41" y2="2"/><line class="cls-1" x1="23" y1="2" x2="18" y2="7"/><path class="cls-2" d="M53.52,9.09a7.31,7.31,0,0,0-11.07.63,13,13,0,0,1-20.9,0,7.28,7.28,0,0,0-11-.71,30,30,0,1,0,42.95.09Z"/><path class="cls-3" d="M52.86,14.7A9.16,9.16,0,0,1,40.52,25.61,9.16,9.16,0,0,1,52.86,14.7Z"/><path class="cls-3" d="M10.39,14.7A9.16,9.16,0,0,0,22.74,25.61,9.16,9.16,0,0,0,10.39,14.7Z"/><path class="cls-4" d="M23.21,19a8.92,8.92,0,0,0-9,7.91L12.56,44.08a4.73,4.73,0,0,0,3.94,4.6l6.76.8A7.24,7.24,0,0,0,30.38,55h3.24a7.24,7.24,0,0,0,7.11-5.52l6.76-.8a4.73,4.73,0,0,0,3.94-4.6L49.78,26.91a8.92,8.92,0,0,0-9-7.91Z"/><path class="cls-5" d="M47.5,44.68l-6.76.8A7.24,7.24,0,0,1,33.62,51H30.38a7.24,7.24,0,0,1-7.11-5.52l-6.76-.8a4.79,4.79,0,0,1-3.7-3.16l-.25,2.56a4.73,4.73,0,0,0,3.94,4.6l6.76.8A7.24,7.24,0,0,0,30.38,55h3.24a7.24,7.24,0,0,0,7.11-5.52l6.76-.8a4.73,4.73,0,0,0,3.94-4.6l-.25-2.56A4.79,4.79,0,0,1,47.5,44.68Z"/><path class="cls-6" d="M32,40l2.86-3.26A1,1,0,0,0,34.08,35H29.92a1,1,0,0,0-.78,1.72Z"/><circle class="cls-6" cx="24.5" cy="31.5" r="1.5"/><circle class="cls-6" cx="39.5" cy="31.5" r="1.5"/><path class="cls-7" d="M26,45a6,6,0,0,0,6-6"/><path class="cls-7" d="M38,45a6,6,0,0,1-6-6"/></g></svg>